# xmcd
#
# Track frame offsets:
# 150
# 10498
# 21664
# 32173
# 43224
# 51080
# 59641
# 71219
# 79801
# 89966
# 100645
# 112448
# 120817
# 131124
#
# Disc length: 1908 seconds
#
#
# Revision: 0
# Processed by: cddbd v1.5.1PL0 Copyright (c) Steve Scherf et al.
# Submitted via: FreeRIP 2.35 
#
DISCID=d607720e
DTITLE=Johnny Cash - From The Vaults, Volume 1
DYEAR=2003
DGENRE=Country
TTITLE0=Hey! Porter
TTITLE1=Cry, Cry, Cry
TTITLE2=There You Go
TTITLE3=Train of Love
TTITLE4=Come In Stranger
TTITLE5=Guess Things Happen That Way
TTITLE6=Don't Make Me Go
TTITLE7=Wreck Of The Old '97
TTITLE8=Rock Island Line
TTITLE9=Cold, Cold Heart
TTITLE10=Part Of Lonely Hearts
TTITLE11=Sugartime
TTITLE12=The Ways Of A Woman In Love
TTITLE13=You're The Nearest Thing To Heaven
EXTD=
EXTT0=
EXTT1=
EXTT2=
EXTT3=
EXTT4=
EXTT5=
EXTT6=
EXTT7=
EXTT8=
EXTT9=
EXTT10=
EXTT11=
EXTT12=
EXTT13=
PLAYORDER=
